<svg id="Capa_1" enable-background="new 0 0 512 512" height="512" viewBox="0 0 512 512" width="512" xmlns="http://www.w3.org/2000/svg"><g><g><g><g><g><g><g><circle cx="256" cy="256" fill="#1dd882" r="256"/></g></g></g></g></g></g><path d="m512 256c0-3.663-.077-7.307-.229-10.932l-116.198-116.197-275.547 258.096 124.793 124.793c3.707.159 7.435.24 11.181.24 141.385 0 256-114.615 256-256z" fill="#06b26b"/><g><g><g><g><g><g><circle cx="256" cy="256" fill="#555a66" r="188.793"/></g></g></g></g></g></g><g><g><g><g><g><g><path d="m444.793 256c0-104.228-84.461-188.727-188.673-188.792v377.584c104.213-.065 188.673-84.564 188.673-188.792z" fill="#333940"/></g></g></g></g></g></g><g><g><g><g><g><g><ellipse cx="256" cy="256" fill="#fff" rx="109.712" ry="109.712" transform="matrix(.707 -.707 .707 .707 -106.039 256)"/></g></g></g></g></g></g><g><g><g><g><g><g><path d="m365.712 256c0-60.552-49.055-109.646-109.592-109.711v219.421c60.537-.064 109.592-49.158 109.592-109.71z" fill="#e9edf5"/></g></g></g></g></g></g><g><path d="m290.631 241.699c4.98-7.136 7.913-15.867 7.913-25.288 0-24.03-19.085-43.58-42.544-43.58s-42.544 19.55-42.544 43.58c0 9.42 2.933 18.152 7.913 25.287-13.02 10.005-21.392 25.508-21.392 42.881 0 30.1 25.132 54.588 56.023 54.588s56.022-24.488 56.022-54.588c0-17.372-8.372-32.875-21.391-42.88zm-47.175-25.287c0-7.488 5.627-13.58 12.544-13.58s12.544 6.092 12.544 13.58-5.627 13.58-12.544 13.58-12.544-6.092-12.544-13.58zm12.544 92.756c-14.349 0-26.023-11.03-26.023-24.588s11.674-24.588 26.023-24.588 26.022 11.03 26.022 24.588-11.673 24.588-26.022 24.588z" fill="#555a66"/><path d="m290.629 241.7c4.981-7.135 7.915-15.867 7.915-25.288 0-23.989-19.02-43.51-42.423-43.577v30.003c6.861.071 12.423 6.129 12.423 13.574s-5.562 13.502-12.423 13.574v.009 29.994.006c14.293.062 25.902 11.065 25.902 24.585s-11.609 24.523-25.902 24.585v30c30.835-.064 55.902-24.525 55.902-54.585-.001-17.373-8.374-32.876-21.394-42.88z" fill="#333940"/></g></g></svg>